# xmcd
#
# Track frame offsets:
#	150
#	20089
#	40798
#	58814
#	78439
#	92044
#	106114
#	123748
#	138572
#	155890
#	169872
#	180943
#	194940
#	210520
#	221831
#	238018
#	254742
#	270488
#	285813
#
# Disc length: 3971 seconds
#
# Revision: 1
# Processed by: cddbd v1.5.2PL0 Copyright (c) Steve Scherf et al.
# Submitted via: audiograbber 1.83.01
#
DISCID=1f0f8113
DTITLE=Artists Carousel - Artists Carousel 115
DYEAR=2009
DGENRE=Country
TTITLE0=Outskirts Of Town  - Ken Wentworth
TTITLE1=Jesus Heard Every Word (i Never Said)  - Gina Michaels
TTITLE2=My Final Rose  - Allen Karl
TTITLE3=Think About When Jesus - Delon
TTITLE4=Goodbye To Nashville  - Donna Ray
TTITLE5=An Empty Whiskey Glass  - Cindy Lane Adams
TTITLE6=White Roses  - Jose Daniels
TTITLE7=Georgia  - Slim Andrews
TTITLE8=I Go On Dreaming  - Ulla Lindstrøm
TTITLE9=You Tag Alone  - Phil Coley
TTITLE10=Lean Times  - Tommy Roe Myers
TTITLE11=Is It Friday Jet  - Garrick Alden
TTITLE12=Oh Tennessee  - Allan Karl
TTITLE13=Isen´t It Strange  - Celeste Talley
TTITLE14=Railroad Riding Mama  - Pete Rose
TTITLE15=Smokey Maintain Bear Race  - Ron Thompson
TTITLE16=Dont Tell Me Your Troubles  - Allen Karl
TTITLE17=Let´s Make America Great Again  - Ronni Twisdale
TTITLE18=We Could  - Allen Karl
EXTD=
EXTT0=
EXTT1=
EXTT2=
EXTT3=
EXTT4=
EXTT5=
EXTT6=
EXTT7=
EXTT8=
EXTT9=
EXTT10=
EXTT11=
EXTT12=
EXTT13=
EXTT14=
EXTT15=
EXTT16=
EXTT17=
EXTT18=
PLAYORDER=
